<svg xmlns="http://www.w3.org/2000/svg" viewBox="0 0 69.0625 73.9998"><defs><style>.a{fill:#8ed8f8;}.a,.b{fill-rule:evenodd;}.b{fill:none;stroke:#231f20;stroke-linecap:round;stroke-linejoin:round;stroke-width:1.9998px;}</style></defs><path class="a" d="M38.9854,27.401a9.9187,9.9187,0,0,1,4.5,2.5849l.0428.0439,7.1037-4.1017,3.8046-12.6173a2.51,2.51,0,1,1,4.8118,1.4338l-2.2668,7.5169,7.2317-4.1755a2.5079,2.5079,0,0,1,2.5143,4.34l-7.24,4.18L67.12,28.3988a2.51,2.51,0,0,1-1.1386,4.89L53.1376,30.273l-7.1,4.0989a9.9567,9.9567,0,0,1,.0005,5.2609l7.0952,4.0963L65.9822,40.71a2.5106,2.5106,0,0,1,1.139,4.89L59.483,47.3949l7.2354,4.1774a2.5029,2.5029,0,1,1-2.4942,4.34L56.978,51.729l2.27,7.5255a2.51,2.51,0,1,1-4.8118,1.434L50.6284,48.0633l-7.0957-4.0969-.0471.0476a9.9214,9.9214,0,0,1-4.5,2.5849v8.2117L48.0066,64.41a2.5077,2.5077,0,1,1-3.653,3.4365l-5.3682-5.7118v8.3514a2.5142,2.5142,0,0,1-5.0284,0V62.1336l-5.3677,5.7127a2.5077,2.5077,0,1,1-3.653-3.4365l9.0207-9.6V46.5989a9.9212,9.9212,0,0,1-4.5-2.5849l-.0428-.0434L22.31,48.0726,18.5056,60.6891a2.51,2.51,0,0,1-4.8118-1.4338l2.2669-7.5169L8.7289,55.9138a2.5079,2.5079,0,0,1-2.5143-4.34l7.2405-4.18L5.822,45.6011a2.51,2.51,0,1,1,1.1387-4.89l12.844,3.0157,7.098-4.0977a9.9573,9.9573,0,0,1,.0034-5.2614L19.8081,30.27,6.96,33.29a2.5106,2.5106,0,0,1-1.139-4.89l7.6374-1.7951L6.2239,22.4276a2.5029,2.5029,0,0,1,2.4942-4.34l7.2462,4.1833-2.27-7.5257a2.51,2.51,0,0,1,4.8118-1.4337L22.314,25.9366l7.1022,4.1.0453-.0456-.0048-.0048a9.9185,9.9185,0,0,1,4.5-2.5849V19.1884L24.9357,9.59a2.5077,2.5077,0,0,1,3.653-3.4364l5.3683,5.7118V3.514a2.5142,2.5142,0,0,1,5.0284,0v8.3523L44.353,6.1536A2.5077,2.5077,0,0,1,48.006,9.59l-9.0206,9.6V27.401Zm.9456,6.14a4.8942,4.8942,0,0,0-6.92,0l-.0051-.0051-.0048.0051a4.89,4.89,0,1,0,7.7151,1.0126l-.0051-.0085a4.837,4.837,0,0,0-.6693-.9Z"/><path class="b" d="M22.6031,27.7573l3.9331,2.279.0456-.0456-.0048-.0048a9.9185,9.9185,0,0,1,4.5-2.5849V19.1884L22.056,9.59a2.5075,2.5075,0,1,1,3.6527-3.4364l1.9449,2.07m3.4237,3.6422V3.514a2.5142,2.5142,0,0,1,5.0283,0v8.3523L41.473,6.1536A2.5077,2.5077,0,1,1,45.126,9.59l-9.02,9.6m0,3.6068V27.401a9.9185,9.9185,0,0,1,4.5,2.5849l.0428.0439,7.1036-4.1017L51.557,13.3108a2.51,2.51,0,1,1,4.8118,1.4338l-.8019,2.6268m-1.4649,4.89,7.2317-4.1755a2.5079,2.5079,0,0,1,2.514,4.34l-7.24,4.18,7.6331,1.7924a2.51,2.51,0,1,1-1.1389,4.89L50.2579,30.273m-3.1541,1.8207L43.158,34.3719a9.9567,9.9567,0,0,1,0,5.2609l7.0951,4.0963L63.1025,40.71a2.5106,2.5106,0,0,1,1.1387,4.89l-2.9211.6863m-4.7169,1.1081,7.2355,4.1774a2.5029,2.5029,0,0,1-2.4942,4.34L54.0983,51.729l2.27,7.5255a2.51,2.51,0,0,1-4.8118,1.434L47.7487,48.0633m-3.172-1.8315L40.653,43.9664l-.0471.0476a9.9212,9.9212,0,0,1-4.5,2.5849v8.2117L45.1269,64.41a2.5077,2.5077,0,1,1-3.653,3.4365l-2.0018-2.13m-3.3665-3.5815v8.3514a2.5142,2.5142,0,0,1-5.0283,0V62.1336L25.71,67.8463a2.5077,2.5077,0,1,1-3.653-3.4365l9.0207-9.6m0-3.4784V46.5989a9.9212,9.9212,0,0,1-4.5-2.5849l-.0428-.0434L19.43,48.0726,15.6256,60.6891a2.51,2.51,0,1,1-4.8115-1.4338l.8566-2.8406m1.41-4.6763-7.232,4.1754a2.5078,2.5078,0,1,1-2.514-4.34l7.24-4.18L2.9423,45.6011a2.51,2.51,0,1,1,1.1386-4.89L16.925,43.7268m3.0535-1.7631,4.0442-2.3346a9.9532,9.9532,0,0,1,.0037-5.2614L16.9284,30.27,4.08,33.29a2.5106,2.5106,0,0,1-1.139-4.89l2.7715-.6519m4.8659-1.1432L3.3442,22.4276a2.5029,2.5029,0,0,1,2.4942-4.34l7.2459,4.1833-2.27-7.5257a2.51,2.51,0,0,1,4.8115-1.4337L19.434,25.9366m17.6173,7.6039a4.8942,4.8942,0,0,0-6.92,0l-.0051-.0051-.0051.0051a4.89,4.89,0,1,0,7.7151,1.0126l-.0048-.0085a4.85,4.85,0,0,0-.6693-.9Z"/></svg>